<svg xmlns="http://www.w3.org/2000/svg" viewBox="0 0 128 128" role="img" aria-label="LightsOut bulb icon">
  <rect width="128" height="128" fill="#111114"/>
  <path fill="#f0b847" d="M64 14c-22.1 0-40 17.2-40 38.5 0 12.6 6.2 23.6 15.7 30.7 4.8 3.6 7.9 9 7.9 15v1.8h32.8v-1.8c0-6 3-11.4 7.8-15C97.8 76.1 104 65.1 104 52.5 104 31.2 86.1 14 64 14Z"/>
  <path fill="#ffe7a3" d="M64 25c-15.7 0-28.5 12.2-28.5 27.2 0 8.9 4.5 16.8 11.4 21.8 6.8 5 11.3 12.6 12.1 21h10c.8-8.4 5.3-16 12.1-21 6.9-5 11.4-12.9 11.4-21.8C92.5 37.2 79.7 25 64 25Z" opacity=".9"/>
  <path fill="#2a2a2e" d="M46 96h36v10H46zM49 110h30v9H49z"/>
  <path fill="#4a4a52" d="M52 119h24v6H52z"/>
  <path fill="#fff4c7" d="M48 45c2.4-8.3 9.3-13.8 17.6-14.3 2.1-.1 3.9 1.5 4 3.6.1 2.1-1.5 3.9-3.6 4-5.2.3-9.4 3.7-10.8 8.8-.6 2-2.7 3.2-4.7 2.6-2-.6-3.1-2.7-2.5-4.7Z" opacity=".85"/>
</svg>
